<?xml version="1.0" encoding="utf-8"?>
<!-- Generator: Adobe Illustrator 25.2.1, SVG Export Plug-In . SVG Version: 6.00 Build 0)  -->
<svg version="1.1" id="Layer_1" xmlns="http://www.w3.org/2000/svg" xmlns:xlink="http://www.w3.org/1999/xlink" x="0px" y="0px"
	 viewBox="0 0 30 30" style="enable-background:new 0 0 30 30;" xml:space="preserve">
<style type="text/css">
	.st0{fill:#FFFFFF;}
</style>
<image style="display:none;overflow:visible;" width="650" height="323" xlink:href="fwt5WMxCzcapp4WWbj7PX5.jpg"  transform="matrix(0.1003 0 0 0.1003 -5.7762 -0.9788)">
</image>
<path class="st0" d="M69,26h-8c-3.9,0-7-3.2-7-7v-8c0-3.9,3.2-7,7-7h8c3.9,0,7,3.2,7,7v8C76,22.9,72.9,26,69,26z M61,5.6
	c-3,0-5.4,2.4-5.4,5.4v8c0,3,2.4,5.4,5.4,5.4h8c3,0,5.4-2.4,5.4-5.4v-8c0-3-2.4-5.4-5.4-5.4H61z"/>
<path class="st0" d="M15,4C8.9,4,4,8.9,4,15c0,6,4.8,10.9,10.8,11v-7.3h-2.6v-2.9h2.6v-1.4c0-1.8,0.4-3.1,1.4-4
	c1.3-1.3,3.1-1.2,4.3-1.2c0.2,0,0.4,0,0.6,0v3.1c-0.2,0-0.4,0-0.7,0c-0.8,0-1.7,0-2.1,0.3c-0.3,0.3-0.4,0.9-0.4,1.8v1.4h3l-0.4,2.9
	h-2.6v7C22.6,24.4,26,20.1,26,15C26,8.9,21.1,4,15,4z"/>
<path class="st0" d="M65,20.6c-3.1,0-5.6-2.5-5.6-5.6c0-3.1,2.5-5.6,5.6-5.6s5.6,2.5,5.6,5.6C70.6,18.1,68.1,20.6,65,20.6z M65,11.1
	c-2.2,0-3.9,1.8-3.9,3.9s1.8,3.9,3.9,3.9s3.9-1.8,3.9-3.9S67.2,11.1,65,11.1z"/>
<circle class="st0" cx="70.5" cy="8.9" r="1.2"/>
</svg>
