<?xml version="1.0" encoding="utf-8"?>
<!-- Generator: Adobe Illustrator 25.2.1, SVG Export Plug-In . SVG Version: 6.00 Build 0)  -->
<svg version="1.1" id="Layer_1" xmlns="http://www.w3.org/2000/svg" xmlns:xlink="http://www.w3.org/1999/xlink" x="0px" y="0px"
	 viewBox="0 0 30 30" style="enable-background:new 0 0 30 30;" xml:space="preserve">
<style type="text/css">
	.st0{fill:#FFFFFF;}
</style>
<image style="display:none;overflow:visible;" width="650" height="323" xlink:href="fwt5WMxCzcapp4WWbj7PX5.jpg"  transform="matrix(0.1003 0 0 0.1003 -55.7762 -0.9788)">
</image>
<path class="st0" d="M19,26h-8c-3.9,0-7-3.2-7-7v-8c0-3.9,3.2-7,7-7h8c3.9,0,7,3.2,7,7v8C26,22.9,22.9,26,19,26z M11,5.6
	C8,5.6,5.6,8,5.6,11v8c0,3,2.4,5.4,5.4,5.4h8c3,0,5.4-2.4,5.4-5.4v-8c0-3-2.4-5.4-5.4-5.4H11z"/>
<path class="st0" d="M-35,4c-6.1,0-11,4.9-11,11c0,6,4.8,10.9,10.8,11v-7.3h-2.6v-2.9h2.6v-1.4c0-1.8,0.4-3.1,1.4-4
	c1.3-1.3,3.1-1.2,4.3-1.2c0.2,0,0.4,0,0.6,0v3.1c-0.2,0-0.4,0-0.7,0c-0.8,0-1.7,0-2.1,0.3c-0.3,0.3-0.4,0.9-0.4,1.8v1.4h3l-0.4,2.9
	h-2.6v7c4.7-1.3,8.2-5.5,8.2-10.6C-24,8.9-28.9,4-35,4z"/>
<path class="st0" d="M15,20.6c-3.1,0-5.6-2.5-5.6-5.6c0-3.1,2.5-5.6,5.6-5.6s5.6,2.5,5.6,5.6C20.6,18.1,18.1,20.6,15,20.6z M15,11.1
	c-2.2,0-3.9,1.8-3.9,3.9s1.8,3.9,3.9,3.9s3.9-1.8,3.9-3.9S17.2,11.1,15,11.1z"/>
<circle class="st0" cx="20.5" cy="8.9" r="1.2"/>
</svg>
